<?xml version="1.0" encoding="UTF-8" standalone="no"?>
<svg width="24px" height="24px" viewBox="0 0 24 24" version="1.1" xmlns="http://www.w3.org/2000/svg" xmlns:xlink="http://www.w3.org/1999/xlink" xmlns:sketch="http://www.bohemiancoding.com/sketch/ns">
    <!-- Generator: Sketch 3.4.1 (15681) - http://www.bohemiancoding.com/sketch -->
    <title>Slice 1</title>
    <desc>Created with Sketch.</desc>
    <defs></defs>
    <g id="Page-1" stroke="none" stroke-width="1" fill="none" fill-rule="evenodd" sketch:type="MSPage">
        <g id="Group" sketch:type="MSLayerGroup" fill="#FFFFFF">
            <g id="Layer0_22_FILL-link" sketch:type="MSShapeGroup">
                <g id="Layer0_22_FILL">
                    <path d="M8,23.8 C7.73333333,23.9666667 7.43333333,24.0166667 7.1,23.95 C6.9,23.9166667 6.73333333,23.8666667 6.6,23.8 C6.76666667,23.9 6.95,23.9666667 7.15,24 C7.45,24.0333333 7.73333333,23.9833333 8,23.85 L9.7,22.9 L8,23.8 L8,23.8 Z M2.9,15.15 L2.85,15.1 L1.55,15.85 L2.9,15.15 L2.9,15.15 Z M0.35,17.6 C0.19375,17.44375 0.110416667,17.29375 0.1,17.15 C0.108333333,17.325 0.191666667,17.4916667 0.35,17.65 L1.5,18.75 L0.35,17.6 L0.35,17.6 Z M5.3,8.8 L5.2,8.85 L2.65,13.45 C2.61809896,13.5138021 2.60143229,13.5804687 2.6,13.65 C2.60208333,13.6125 2.61875,13.5625 2.65,13.5 L5.3,8.8 L5.3,8.8 Z M9.55,3.8 L9.65,3.7 L10.25,2.55 L9.55,3.8 L9.55,3.8 Z M23.45,12.65 C23.6166667,12.55 23.7666667,12.5166667 23.9,12.55 C23.8,12.4833333 23.6333333,12.5 23.4,12.6 L20.7,14.15 L23.45,12.65 L23.45,12.65 Z M12.5,23.95 C12.5328125,23.9828125 12.5828125,23.9994792 12.65,24 C12.615625,23.9989583 12.5822917,23.9822917 12.55,23.95 C12.4833333,23.85 12.5166667,23.6833333 12.65,23.45 L13.6,21.65 L12.6,23.45 C12.4666667,23.6833333 12.4333333,23.85 12.5,23.95 L12.5,23.95 Z M14.35,20.25 L14.45,20.1 L14.45,19.95 L14.45,19.9 C14.4166667,20.1666667 14.2833333,20.3666667 14.05,20.5 C14.1833333,20.4333333 14.2833333,20.35 14.35,20.25 L14.35,20.25 Z M13.2,13.25 C13.4,13.45 13.5166667,13.7 13.55,14 L13.55,13.95 C13.5166667,13.6833333 13.45,13.5 13.35,13.4 L14.55,14.55 L10.8,10.8 C10.6,10.6 10.4666667,10.3333333 10.4,10 C10.4333333,10.2666667 10.5333333,10.5 10.7,10.7 L7.45,7.45 C7.61666667,7.25 7.75,7.06666667 7.85,6.9 L7.95,6.75 C7.98333333,6.71666667 8,6.68333333 8,6.65 L8.55,5.65 L8,6.6 C7.86666667,6.86666667 7.66666667,7.13333333 7.4,7.4 L7.4,7.45 L13.2,13.25 L13.2,13.25 Z M16.1,17.1 C16.2291667,16.9416667 16.3958333,16.775 16.6,16.6 L16.55,16.55 C16.375,16.7541667 16.225,16.9375 16.1,17.1 L16.1,17.1 Z M17.2,0.15 C17.0916667,0.1 16.975,0.05 16.85,0 L16.8,0 C16.9510417,0.050390625 17.084375,0.100390625 17.2,0.15 L17.2,0.15 Z M23.4,7.6 C23.6666667,7.46666667 23.8166667,7.26666667 23.85,7 C23.8833333,6.76666667 23.8,6.55 23.6,6.35 L22.45,5.25 L23.55,6.35 C23.75,6.55 23.8333333,6.76666667 23.8,7 C23.7666667,7.26666667 23.6333333,7.46666667 23.4,7.6 L23.4,7.6 Z" id="Shape"></path>
                </g>
            </g>
        </g>
        <g id="Group" sketch:type="MSLayerGroup" transform="translate(10.000000, 2.000000)" fill-opacity="0.901960784" fill="#FFC34E">
            <g id="Layer0_22_MEMBER_0_FILL-link" sketch:type="MSShapeGroup">
                <g id="Layer0_22_MEMBER_0_FILL">
                    <path d="M11.45,7.65 C11.4166667,7.35 11.3,7.1 11.1,6.9 L5.1,0.9 C4.9,0.7 4.68333333,0.616666667 4.45,0.65 C4.21666667,0.683333333 4.03333333,0.833333333 3.9,1.1 L0.55,7.15 C0.416666667,7.38333333 0.366666667,7.66666667 0.4,8 C0.466666667,8.33333333 0.6,8.6 0.8,8.8 L6.75,14.75 C6.95,14.95 7.16666667,15.0333333 7.4,15 C7.66666667,14.9666667 7.86666667,14.8333333 8,14.6 L11.3,8.55 C11.4666667,8.28333333 11.5166667,7.98333333 11.45,7.65 L11.45,7.65 Z" id="Shape"></path>
                </g>
            </g>
        </g>
        <g id="Group" sketch:type="MSLayerGroup" transform="translate(12.000000, 12.000000)" fill-opacity="0.901960784" fill="#FE0FA6">
            <g id="Layer0_22_MEMBER_1_FILL-link" sketch:type="MSShapeGroup">
                <g id="Layer0_22_MEMBER_1_FILL">
                    <path d="M4.6,4.6 C4.3375,4.83333333 4.1375,5.05 4,5.25 L0.65,11.45 C0.516666667,11.6833333 0.483333333,11.85 0.55,11.95 C0.570052083,11.9700521 0.58671875,11.9700521 0.6,11.95 C0.713541667,11.9765625 0.863541667,11.9432292 1.05,11.85 L7.1,8.5 C7.33333333,8.36666667 7.6,8.16666667 7.9,7.9 C8.16666667,7.6 8.36666667,7.33333333 8.5,7.1 L11.85,1.05 C11.9833333,0.783333333 12.0166667,0.616666667 11.95,0.55 C11.9283854,0.535677083 11.8950521,0.519010417 11.85,0.5 C11.766276,0.495442708 11.6329427,0.545442708 11.45,0.65 L5.35,3.95 C5.11666667,4.08333333 4.86666667,4.3 4.6,4.6 L4.6,4.6 Z" id="Shape"></path>
                </g>
            </g>
        </g>
        <g id="Group" sketch:type="MSLayerGroup" transform="translate(0.000000, 12.000000)" fill-opacity="0.901960784" fill="#FF3E3C">
            <g id="Layer0_22_MEMBER_2_FILL-link" sketch:type="MSShapeGroup">
                <g id="Layer0_22_MEMBER_2_FILL">
                    <path d="M14.45,7.9 C14.4533854,7.87408854 14.4533854,7.84075521 14.45,7.8 C14.4513021,7.60898437 14.3679687,7.42565104 14.2,7.25 L8.25,1.3 C8.05,1.1 7.78333333,0.966666667 7.45,0.9 C7.11666667,0.866666667 6.83333333,0.916666667 6.6,1.05 L0.35,4.5 C0.208333333,4.625 0.125,4.775 0.1,4.95 L0.1,5 C0.0963541667,5.02552083 0.0963541667,5.0421875 0.1,5.05 C0.103125,5.253125 0.186458333,5.43645833 0.35,5.6 L6.35,11.6 L6.6,11.8 C6.74583333,11.8791667 6.9125,11.9291667 7.1,11.95 C7.43333333,12.0166667 7.73333333,11.9666667 8,11.8 L14.05,8.5 C14.2833333,8.36666667 14.4166667,8.16666667 14.45,7.9 L14.45,7.9 Z" id="Shape"></path>
                </g>
            </g>
        </g>
        <g id="Group" sketch:type="MSLayerGroup" transform="translate(-1.000000, 0.000000)" fill-opacity="0.901960784" fill="#9823C6">
            <g id="Layer0_22_MEMBER_3_FILL-link" sketch:type="MSShapeGroup">
                <g id="Layer0_22_MEMBER_3_FILL">
                    <path d="M10.55,3.75 L12.35,0.55 C12.4833333,0.316666667 12.5166667,0.15 12.45,0.05 C12.35,-0.0166666667 12.1833333,0.0166666667 11.95,0.15 L5.9,3.45 C5.69947917,3.57539063 5.49947917,3.72539063 5.3,3.9 L5.1,4.1 C4.8,4.4 4.58333333,4.66666667 4.45,4.9 L1.15,10.95 C0.983333333,11.2166667 0.95,11.3833333 1.05,11.45 C1.11666667,11.5166667 1.28333333,11.4833333 1.55,11.35 L6.2,8.8 L6.25,8.75 L7.6,8.05 C7.85833333,7.88854167 8.10833333,7.671875 8.35,7.4 L8.4,7.4 C8.66666667,7.13333333 8.86666667,6.86666667 9,6.6 L10.45,3.9 C10.4858073,3.86822917 10.5191406,3.81822917 10.55,3.75 L10.55,3.75 Z" id="Shape"></path>
                </g>
            </g>
        </g>
        <g id="Group" sketch:type="MSLayerGroup" transform="translate(2.000000, 6.000000)" fill-opacity="0.901960784" fill="#98D843">
            <g id="Layer0_22_MEMBER_4_FILL-link" sketch:type="MSShapeGroup">
                <g id="Layer0_22_MEMBER_4_FILL">
                    <path d="M11.4,8.9 C11.5666667,8.63333333 11.6166667,8.33333333 11.55,8 C11.5166667,7.7 11.4,7.45 11.2,7.25 L5.2,1.25 C5,1.05 4.78333333,0.966666667 4.55,1 C4.31666667,1.03333333 4.13333333,1.18333333 4,1.45 L0.65,7.5 C0.609114583,7.57161458 0.57578125,7.63828125 0.55,7.7 C0.5078125,7.85559896 0.491145833,8.00559896 0.5,8.15 C0.49609375,8.20026042 0.49609375,8.23359375 0.5,8.25 L0.5,8.35 C0.555859375,8.62916667 0.655859375,8.8625 0.8,9.05 C0.818880208,9.06601563 0.835546875,9.08268229 0.85,9.1 C0.866927083,9.11692708 0.88359375,9.13359375 0.9,9.15 L6.85,15.1 C7.05,15.3 7.26666667,15.3833333 7.5,15.35 C7.76666667,15.3166667 7.96666667,15.1833333 8.1,14.95 L11.4,8.9 L11.4,8.9 Z" id="Shape"></path>
                </g>
            </g>
        </g>
        <g id="Group" sketch:type="MSLayerGroup" transform="translate(9.000000, -1.000000)" fill-opacity="0.901960784" fill="#26C4FF">
            <g id="Layer0_22_MEMBER_5_FILL-link" sketch:type="MSShapeGroup">
                <g id="Layer0_22_MEMBER_5_FILL">
                    <path d="M8.45,1.3 C8.28333333,1.16666667 8.06666667,1.06666667 7.8,1 C7.5,0.966666667 7.21666667,1.01666667 6.95,1.15 L0.9,4.5 L0.9,4.55 C0.833333333,4.55 0.783333333,4.56666667 0.75,4.6 L0.7,4.65 C0.666666667,4.65 0.65,4.66666667 0.65,4.7 C0.55,4.8 0.483333333,4.91666667 0.45,5.05 C0.416666667,5.28333333 0.5,5.51666667 0.7,5.75 L6.7,11.7 C6.9,11.9 7.15,12.0166667 7.45,12.05 C7.78333333,12.1166667 8.08333333,12.0833333 8.35,11.95 L14.4,8.6 C14.6333333,8.46666667 14.7666667,8.26666667 14.8,8 C14.8333333,7.76666667 14.75,7.55 14.55,7.35 L8.6,1.4 L8.45,1.3 L8.45,1.3 Z" id="Shape"></path>
                </g>
            </g>
        </g>
    </g>
</svg>